<?xml version="1.0" encoding="utf-8"?>
<!-- Generator: Adobe Illustrator 21.0.0, SVG Export Plug-In . SVG Version: 6.00 Build 0)  -->
<svg version="1.1" id="Layer_1" xmlns="http://www.w3.org/2000/svg" xmlns:xlink="http://www.w3.org/1999/xlink" x="0px" y="0px"
	 width="14px" height="20px" viewBox="0 0 14 20" style="enable-background:new 0 0 14 20;" xml:space="preserve">
<style type="text/css">
	.st0{fill:#FFBB02;}
</style>
<title>attachment [#1574]</title>
<desc>Created with Sketch.</desc>
<g id="Page-1">
	<g id="Dribbble-Light-Preview" transform="translate(-263.000000, -919.000000)">
		<g id="icons" transform="translate(56.000000, 160.000000)">
			<path id="attachment-_x5B__x23_1574_x5D_" class="st0" d="M220,763L220,763c0.5,0,1,0.5,1,1l-0.1,13c0,1.1-0.9,2-2,2l-9.9,0
				c-1.1,0-2-0.9-2-2l0.1-16c0-1.1,0.9-2,2-2l6,0c1.1,0,2,0.9,2,2l-0.1,12c0,1.1-0.9,2-2,2l-2,0c-1.1,0-2-0.9-2-2l0.1-9
				c0-0.6,0.4-1,1-1c0.5,0,1,0.5,1,1l-0.1,8c0,0.6,0.4,1,1,1c0.6,0,1-0.4,1-1l0.1-10c0-0.6-0.4-1-1-1l-4,0c-0.6,0-1,0.4-1,1l-0.1,14
				c0,0.6,0.4,1,1,1l8,0c0.6,0,1-0.4,1-1l0.1-12C219,763.5,219.5,763,220,763"/>
		</g>
	</g>
</g>
</svg>
