<?xml version="1.0" encoding="utf-8"?>
<!-- Generator: Adobe Illustrator 21.0.0, SVG Export Plug-In . SVG Version: 6.00 Build 0)  -->
<svg version="1.1" id="Layer_1" xmlns="http://www.w3.org/2000/svg" xmlns:xlink="http://www.w3.org/1999/xlink" x="0px" y="0px"
	 width="20px" height="21px" viewBox="0 0 20 21" style="enable-background:new 0 0 20 21;" xml:space="preserve">
<style type="text/css">
	.st0{fill:#FFBB02;}
</style>
<title>diamond_round [#881]</title>
<desc>Created with Sketch.</desc>
<g id="Page-1">
	<g id="Dribbble-Light-Preview" transform="translate(-420.000000, -4278.000000)">
		<g id="icons" transform="translate(56.000000, 160.000000)">
			<path id="diamond_x5F_round-_x5B__x23_881_x5D_" class="st0" d="M366.7,4128.2l6.6-6.6c0.4-0.4,1-0.4,1.4,0l6.6,6.6
				c0.2,0.2,0.3,0.7,0.3,0.7l-15.2,0C366.4,4128.9,366.5,4128.4,366.7,4128.2 M375.4,4138.3l8-8c0.4-0.4,0.6-0.9,0.6-1.4
				c0-0.5-0.2-1-0.6-1.4l-8-8c-0.8-0.8-2-0.8-2.8,0l-8,8c-0.4,0.4-0.6,0.9-0.6,1.4c0,0.5,0.2,1,0.6,1.4l8,8
				C373.4,4139.1,374.6,4139.1,375.4,4138.3"/>
		</g>
	</g>
</g>
</svg>
