<?xml version="1.0" encoding="utf-8"?>
<!-- Generator: Adobe Illustrator 21.0.0, SVG Export Plug-In . SVG Version: 6.00 Build 0)  -->
<svg version="1.1" id="Layer_1" xmlns="http://www.w3.org/2000/svg" xmlns:xlink="http://www.w3.org/1999/xlink" x="0px" y="0px"
	 width="20px" height="21px" viewBox="0 0 20 21" style="enable-background:new 0 0 20 21;" xml:space="preserve">
<style type="text/css">
	.st0{fill:#FFBB02;}
</style>
<title>diamond_round [#880]</title>
<desc>Created with Sketch.</desc>
<g id="Page-1">
	<g id="Dribbble-Light-Preview" transform="translate(-60.000000, -4318.000000)">
		<g id="icons" transform="translate(56.000000, 160.000000)">
			<path id="diamond_x5F_round-_x5B__x23_880_x5D_" class="st0" d="M13.3,4176.2l-6.6-6.6c-0.4-0.4-0.4-1,0-1.4l6.6-6.6
				c0.4-0.4,1-0.4,1.4,0l6.6,6.6c0.4,0.4,0.4,1,0,1.4l-6.6,6.6C14.3,4176.6,13.7,4176.6,13.3,4176.2 M23.4,4167.5l-8-8
				c-0.4-0.4-0.9-0.6-1.4-0.6c-0.5,0-1,0.2-1.4,0.6l-8,8c-0.8,0.8-0.8,2,0,2.8l8,8c0.4,0.4,0.9,0.6,1.4,0.6c0.5,0,1-0.2,1.4-0.6l8-8
				C24.2,4169.6,24.2,4168.3,23.4,4167.5"/>
		</g>
	</g>
</g>
</svg>
