<?xml version="1.0" encoding="utf-8"?>
<!-- Generator: Adobe Illustrator 21.0.0, SVG Export Plug-In . SVG Version: 6.00 Build 0)  -->
<svg version="1.1" id="Layer_1" xmlns="http://www.w3.org/2000/svg" xmlns:xlink="http://www.w3.org/1999/xlink" x="0px" y="0px"
	 viewBox="0 0 260 260" style="enable-background:new 0 0 260 260;" xml:space="preserve">
<style type="text/css">
	.st0{fill:#FFFFFF;fill-opacity:0;}
	.st1{fill:#FFFFFF;}
</style>
<title>5. five</title>
<rect class="st0" width="260" height="260"/>
<path class="st1" d="M59.6,212.6c-11.3,0-20.8-2.1-28.5-6.3c-7.5-4.1-13.8-10-18.3-17.3C8,181,4.7,172.3,3,163.1
	c-2-10.5-3-21.1-2.9-31.8c-0.1-11.5,1.3-22.9,4-34c2.7-10.5,6.2-19,10.7-25.3c4.6-6.5,10.3-12,17-16.3c6.8-4.5,16.2-6.7,28-6.7
	c11.3,0,20.6,1.8,28.1,5.3c7.6,3.7,14,9.4,18.5,16.5c4.9,7.4,8.3,16.3,10.2,26.7c2,10.9,3,22,2.9,33.2c0.1,10.7-0.9,21.5-2.9,32
	c-1.7,9.2-5,18-9.9,26c-4.6,7.3-11,13.3-18.5,17.5C80.6,210.4,71,212.6,59.6,212.6z M59.6,193.9c8.2,0,14.8-1.7,19.8-5
	c5-3.3,9-8.1,11.3-13.6c2.8-6.4,4.7-13.2,5.7-20.1c1.3-8.1,1.9-16.3,1.9-24.5c0-8-0.5-16-1.5-24c-0.8-7-2.7-13.9-5.7-20.3
	c-2.6-5.6-6.7-10.5-11.8-14c-5-3.5-11.6-5.3-19.6-5.3c-8.3,0-14.9,1.8-19.7,5.3c-4.6,3.3-8.3,7.6-10.8,12.7
	c-2.4,4.9-4.3,11.7-5.6,20.3c-1.3,8.4-2,16.9-2,25.4c0,8.2,0.4,16.4,1.3,24.5c0.7,6.9,2.5,13.7,5.3,20.1c2.5,5.5,6.5,10.2,11.5,13.6
	C44.8,192.2,51.4,193.9,59.6,193.9z"/>
<path class="st1" d="M172.9,116.8c3.7-2.6,7.8-4.6,12.1-6c4.6-1.4,9.4-2.1,14.2-2c7.4-0.1,14.8,1.3,21.6,4.2
	c6.4,2.6,12.1,6.5,17,11.3c4.7,4.8,8.5,10.4,11,16.6c2.6,6.4,4,13.2,3.9,20.1c0,7-1.3,13.9-3.9,20.3c-2.5,6.3-6.3,12-11,16.9
	c-4.9,4.9-10.7,8.8-17.2,11.5c-7.1,2.9-14.7,4.4-22.3,4.3c-5.9,0-11.8-0.8-17.4-2.5c-5.2-1.5-10.1-3.9-14.6-6.9
	c-4.3-3-8.1-6.6-11.3-10.7c-3.2-4.1-5.7-8.7-7.6-13.5l17.2-8.6c1.1,3.5,2.8,6.9,4.9,9.9c2.1,3,4.7,5.7,7.7,7.9c3,2.2,6.3,4,9.8,5.1
	c3.7,1.2,7.5,1.9,11.3,1.8c9.5,0.1,18.6-3.7,25.3-10.4c3.2-3.2,5.7-7.1,7.5-11.3c1.8-4.4,2.8-9.1,2.8-13.8c0-4.7-0.9-9.4-2.7-13.8
	c-1.8-4.1-4.3-7.9-7.6-11c-6.8-6.5-15.8-10.1-25.2-10c-5.3-0.1-10.6,1-15.5,3c-4.5,1.8-8.5,4.5-11.8,8l-15.4-2.4V51.5h89.6V69h-72.3
	V116.8z"/>
</svg>
