<?xml version="1.0" encoding="utf-8"?>
<!-- Generator: Adobe Illustrator 21.0.0, SVG Export Plug-In . SVG Version: 6.00 Build 0)  -->
<svg version="1.1" id="Layer_1" xmlns="http://www.w3.org/2000/svg" xmlns:xlink="http://www.w3.org/1999/xlink" x="0px" y="0px"
	 width="12px" height="20px" viewBox="0 0 12 20" style="enable-background:new 0 0 12 20;" xml:space="preserve">
<style type="text/css">
	.st0{fill:#3B3B3B;}
</style>
<title>phone [#225]</title>
<desc>Created with Sketch.</desc>
<g id="Page-1">
	<g id="Dribbble-Light-Preview" transform="translate(-384.000000, -7159.000000)">
		<g id="icons" transform="translate(56.000000, 160.000000)">
			<path id="phone-_x5B__x23_225_x5D_" class="st0" d="M338,7002c0-0.6-0.4-1-1-1h-6c-0.6,0-1,0.4-1,1v14c0,0.6,0.4,1,1,1h6
				c0.6,0,1-0.4,1-1V7002z M340,7001v16c0,1.1-0.9,2-2,2h-8c-1.1,0-2-0.9-2-2v-16c0-1.1,0.9-2,2-2h8C339.1,6999,340,6999.9,340,7001
				L340,7001z M335,7014c0,0.6-0.4,1-1,1s-1-0.4-1-1s0.4-1,1-1S335,7013.4,335,7014L335,7014z"/>
		</g>
	</g>
</g>
</svg>
