<?xml version="1.0" encoding="utf-8"?>
<!-- Generator: Adobe Illustrator 21.0.0, SVG Export Plug-In . SVG Version: 6.00 Build 0)  -->
<svg version="1.1" id="Layer_1" xmlns="http://www.w3.org/2000/svg" xmlns:xlink="http://www.w3.org/1999/xlink" x="0px" y="0px"
	 width="14px" height="20px" viewBox="0 0 14 20" style="enable-background:new 0 0 14 20;" xml:space="preserve">
<style type="text/css">
	.st0{fill:#FFBB02;}
</style>
<title>pin_sharp_circle [#624]</title>
<desc>Created with Sketch.</desc>
<g id="Page-1">
	<g id="Dribbble-Light-Preview" transform="translate(-223.000000, -5439.000000)">
		<g id="icons" transform="translate(56.000000, 160.000000)">
			<path id="pin_x5F_sharp_x5F_circle-_x5B__x23_624_x5D_" class="st0" d="M176,5286.2c0,1.1-0.9,2-2,2s-2-0.9-2-2c0-1.1,0.9-2,2-2
				S176,5285.1,176,5286.2 M174,5296c0,0-5-7-5-10c0-2.8,2.2-5,5-5s5,2.2,5,5C179,5289,174,5296,174,5296 M174,5279
				c-3.9,0-7,3.1-7,7s7,13,7,13s7-9.1,7-13S177.9,5279,174,5279"/>
		</g>
	</g>
</g>
</svg>
