<?xml version="1.0" encoding="utf-8"?>
<!-- Generator: Adobe Illustrator 21.0.0, SVG Export Plug-In . SVG Version: 6.00 Build 0)  -->
<svg version="1.1" id="Layer_1" xmlns="http://www.w3.org/2000/svg" xmlns:xlink="http://www.w3.org/1999/xlink" x="0px" y="0px"
	 viewBox="0 0 21 20" style="enable-background:new 0 0 21 20;" xml:space="preserve">
<style type="text/css">
	.st0{fill:#FFFFFF;}
</style>
<title>search_left [#1504]</title>
<desc>Created with Sketch.</desc>
<g id="Page-1">
	<g id="Dribbble-Light-Preview" transform="translate(-299.000000, -280.000000)">
		<g id="icons" transform="translate(56.000000, 160.000000)">
			<path id="search_x5F_left-_x5B__x23_1504_x5D_" class="st0" d="M264,138.6l-1.5,1.4l-4.5-4.2l1.5-1.4L264,138.6z M251.4,134
				c-3.5,0-6.3-2.7-6.3-6s2.8-6,6.3-6s6.3,2.7,6.3,6C257.7,131.3,254.9,134,251.4,134L251.4,134z M251.4,120c-4.6,0-8.4,3.6-8.4,8
				c0,4.4,3.8,8,8.4,8c4.6,0,8.4-3.6,8.4-8S256,120,251.4,120L251.4,120z"/>
		</g>
	</g>
</g>
</svg>
