<?xml version="1.0" encoding="utf-8"?>
<!-- Generator: Adobe Illustrator 21.0.0, SVG Export Plug-In . SVG Version: 6.00 Build 0)  -->
<svg version="1.1" id="Layer_1" xmlns="http://www.w3.org/2000/svg" xmlns:xlink="http://www.w3.org/1999/xlink" x="0px" y="0px"
	 viewBox="0 0 260 260" style="enable-background:new 0 0 260 260;" xml:space="preserve">
<style type="text/css">
	.st0{fill:#FFFFFF;fill-opacity:0;}
	.st1{fill:#FFFFFF;}
</style>
<title>3. three</title>
<rect class="st0" width="260" height="260"/>
<path class="st1" d="M247.8,151c-1.2-3.8-2.9-7.4-5.1-10.7c-2.1-3.1-4.7-5.8-7.6-8.1c-2.8-2.2-5.9-4-9.3-5.3
	c3.7-1.8,7.1-4.1,10.2-6.8c2.7-2.5,5-5.3,6.9-8.4c1.8-3,3.1-6.2,3.9-9.6c0.8-3.3,1.3-6.7,1.3-10.1c0-5.5-1.2-11-3.5-16.1
	c-2.4-5.3-5.8-10-10-14c-4.5-4.2-9.8-7.6-15.6-9.9c-6.5-2.6-13.4-3.8-20.4-3.7c-11.7,0-23,4.3-31.8,12.1c-4.1,3.7-7.6,8.1-10.2,12.9
	c-2.7,5.1-4.3,10.7-4.6,16.5h19.9c0.3-4.8,2.2-9.4,5.5-13c3.3-3.9,6.7-6.6,10.1-8c3.6-1.5,7.4-2.2,11.3-2.2c4.5-0.1,8.9,0.8,13,2.6
	c3.4,1.5,6.5,3.8,9.1,6.5c2.3,2.5,4.1,5.4,5.4,8.6c1.1,2.8,1.7,5.8,1.7,8.8c0,3.5-0.6,7-2,10.2c-1.3,3.2-3.3,6-5.8,8.3
	c-2.7,2.5-5.8,4.4-9.3,5.6c-4,1.4-8.2,2.1-12.4,2H191V135h9c3.9,0,7.8,0.6,11.5,2c3.5,1.3,6.7,3.3,9.5,5.8c2.8,2.5,5,5.6,6.5,9.1
	c1.7,3.8,2.5,7.9,2.4,12c0,4-0.8,8-2.4,11.6c-1.5,3.4-3.7,6.6-6.4,9.2c-2.6,2.6-5.8,4.7-9.2,6.1c-3.4,1.4-7,2.2-10.7,2.2
	c-8,0-14.7-1.9-19.9-5.6c-5.2-3.7-9.1-9.1-10.9-15.3h-20.2c0.5,4.7,1.8,9.3,3.8,13.5c2.4,5,5.7,9.4,9.8,13.1
	c4.6,4.4,10.1,7.7,16.1,9.8c6.1,2.2,12.6,3.4,19.2,3.4c6.7,0,13.4-1.2,19.7-3.6c5.9-2.3,11.4-5.7,16-10c4.6-4.3,8.2-9.5,10.8-15.2
	c2.7-6,4.1-12.5,4-19.1C249.7,159.7,249.1,155.3,247.8,151z"/>
<path class="st1" d="M59.6,212.6c-11.3,0-20.8-2.1-28.5-6.3c-7.5-4.1-13.8-10-18.3-17.3C8,181,4.7,172.3,3,163.1
	c-2-10.5-3-21.1-2.9-31.8c-0.1-11.5,1.3-22.9,4-34c2.7-10.5,6.2-19,10.7-25.3c4.6-6.5,10.3-12,17-16.3c6.8-4.5,16.2-6.7,28-6.7
	c11.3,0,20.6,1.8,28.1,5.3c7.6,3.7,14,9.4,18.5,16.5c4.9,7.4,8.3,16.3,10.2,26.7c2,10.9,3,22,2.9,33.2c0.1,10.7-0.9,21.5-2.9,32
	c-1.7,9.2-5,18-9.9,26c-4.6,7.3-11,13.3-18.5,17.5C80.6,210.4,71,212.6,59.6,212.6z M59.6,193.9c8.2,0,14.8-1.7,19.8-5
	c5-3.3,9-8.1,11.3-13.6c2.8-6.4,4.7-13.2,5.7-20.1c1.3-8.1,1.9-16.3,1.9-24.5c0-8-0.5-16-1.5-24c-0.8-7-2.7-13.9-5.7-20.3
	c-2.6-5.6-6.7-10.5-11.8-14c-5-3.5-11.6-5.3-19.6-5.3c-8.3,0-14.9,1.8-19.7,5.3c-4.6,3.3-8.3,7.6-10.8,12.7
	c-2.4,4.9-4.3,11.7-5.6,20.3c-1.3,8.4-2,16.9-2,25.4c0,8.2,0.4,16.4,1.3,24.5c0.7,6.9,2.5,13.7,5.3,20.1c2.5,5.5,6.5,10.2,11.5,13.6
	C44.8,192.2,51.4,193.9,59.6,193.9z"/>
</svg>
