<?xml version="1.0" encoding="utf-8"?>
<!-- Generator: Adobe Illustrator 21.0.0, SVG Export Plug-In . SVG Version: 6.00 Build 0)  -->
<svg version="1.1" id="Layer_1" xmlns="http://www.w3.org/2000/svg" xmlns:xlink="http://www.w3.org/1999/xlink" x="0px" y="0px"
	 viewBox="0 0 260 260" style="enable-background:new 0 0 260 260;" xml:space="preserve">
<style type="text/css">
	.st0{fill:#FFFFFF;fill-opacity:0;}
	.st1{fill:#FFFFFF;}
</style>
<title>2. two</title>
<rect class="st0" width="260" height="260"/>
<path class="st1" d="M228.4,132.9c3.2-3.8,6.2-7.8,8.9-12c2.1-3.3,4-6.8,5.7-10.4c1.3-2.9,2.3-6,3-9.1c0.6-2.6,0.9-5.3,0.9-8
	c0.1-6.1-1.1-12.1-3.4-17.7c-2.2-5.3-5.5-10.2-9.6-14.2c-4.3-4.1-9.3-7.3-14.9-9.4c-6.2-2.3-12.8-3.5-19.4-3.4c-6,0-12,1.1-17.6,3.4
	c-5.5,2.2-10.5,5.4-14.8,9.6c-4.3,4.2-7.7,9.1-10.1,14.6c-2.6,5.8-3.9,12.1-3.9,18.4H172c0.1-4,0.9-7.9,2.5-11.5
	c1.4-3.2,3.4-6,5.9-8.3c2.5-2.3,5.4-4,8.6-5.1c7-2.4,14.6-2.3,21.5,0.3c3.2,1.2,6.2,3.1,8.8,5.5c2.4,2.3,4.4,5,5.8,8.1
	c1.4,3.1,2.1,6.5,2.1,9.9c0,3.3-0.6,6.6-1.7,9.7c-1.2,3.1-2.6,6.2-4.4,9c-1.8,2.8-3.7,5.6-5.8,8.2c-2.1,2.6-4,5-5.9,7.2l-56,67.6
	v15.4h93.3V192h-67.9L228.4,132.9z"/>
<path class="st1" d="M59.6,212.6c-11.3,0-20.8-2.1-28.5-6.3c-7.5-4.1-13.8-10-18.3-17.3C8,181,4.7,172.3,3,163.1
	c-2-10.5-3-21.1-2.9-31.8c-0.1-11.5,1.3-22.9,4-34c2.7-10.5,6.2-19,10.7-25.3c4.6-6.5,10.3-12,17-16.3c6.8-4.5,16.2-6.7,28-6.7
	c11.3,0,20.6,1.8,28.1,5.3c7.6,3.7,14,9.4,18.5,16.5c4.9,7.4,8.3,16.3,10.2,26.7c2,10.9,3,22,2.9,33.2c0.1,10.7-0.9,21.5-2.9,32
	c-1.7,9.2-5,18-9.9,26c-4.6,7.3-11,13.3-18.5,17.5C80.6,210.4,71,212.6,59.6,212.6z M59.6,193.9c8.2,0,14.8-1.7,19.8-5
	c5-3.3,9-8.1,11.3-13.6c2.8-6.4,4.7-13.2,5.7-20.1c1.3-8.1,1.9-16.3,1.9-24.5c0-8-0.5-16-1.5-24c-0.8-7-2.7-13.9-5.7-20.3
	c-2.6-5.6-6.7-10.5-11.8-14c-5-3.5-11.6-5.3-19.6-5.3c-8.3,0-14.9,1.8-19.7,5.3c-4.6,3.3-8.3,7.6-10.8,12.7
	c-2.4,4.9-4.3,11.7-5.6,20.3c-1.3,8.4-2,16.9-2,25.4c0,8.2,0.4,16.4,1.3,24.5c0.7,6.9,2.5,13.7,5.3,20.1c2.5,5.5,6.5,10.2,11.5,13.6
	C44.8,192.2,51.4,193.9,59.6,193.9z"/>
</svg>
