<?xml version="1.0" encoding="utf-8"?>
<!-- Generator: Adobe Illustrator 21.0.0, SVG Export Plug-In . SVG Version: 6.00 Build 0)  -->
<svg version="1.1" id="_3D_Моделирование"
	 xmlns="http://www.w3.org/2000/svg" xmlns:xlink="http://www.w3.org/1999/xlink" x="0px" y="0px" viewBox="0 0 499.8 500"
	 style="enable-background:new 0 0 499.8 500;" xml:space="preserve">
<style type="text/css">
	.st0{clip-path:url(#SVGID_2_);}
	.st1{fill:#F5F5F5;}
</style>
<title>3d_layers</title>
<g>
	<g>
		<defs>
			<rect id="SVGID_1_" width="500" height="500"/>
		</defs>
		<clipPath id="SVGID_2_">
			<use xlink:href="#SVGID_1_"  style="overflow:visible;"/>
		</clipPath>
		<g class="st0">
			<path class="st1" d="M249.9,299.9c-1.5,0-2.9-0.4-4.2-1.1L4.1,157c-4-2.3-5.3-7.4-3-11.4c0.7-1.2,1.7-2.3,3-3L245.7,1.1
				c2.6-1.5,5.8-1.5,8.4,0l241.6,141.5c4,2.3,5.3,7.4,3,11.4c-0.7,1.2-1.7,2.3-3,3L254.1,298.8C252.9,299.5,251.4,299.9,249.9,299.9
				L249.9,299.9z M24.8,149.8l225.1,132.1L475,149.8L249.9,18L24.8,149.8z"/>
		</g>
	</g>
</g>
<path class="st1" d="M249.9,333.4c-1.5,0-2.9-0.4-4.2-1.1L4.1,190.5C1.6,189,0,186.2,0,183.3V150c0-4.6,3.7-8.3,8.3-8.3
	c1.6,0,3.1,0.4,4.5,1.1L249.9,282L487,142.8c5.3-3.1,12.8,1.1,12.8,7.2v33.3c0,3-1.6,5.7-4.1,7.2L254.1,332.2
	C252.9,333,251.4,333.4,249.9,333.4L249.9,333.4z M16.7,178.5L250,315.4l233.3-136.9v-14.2l-229,134.4c-2.6,1.5-5.8,1.5-8.4,0
	l-229-134.4L16.7,178.5z"/>
<path class="st1" d="M249.9,333.4c-4.6,0-8.3-3.7-8.3-8.3v-33.5c0-4.6,3.7-8.3,8.3-8.3s8.3,3.7,8.3,8.3l0,0v33.5
	C258.3,329.7,254.5,333.4,249.9,333.4L249.9,333.4z"/>
<path class="st1" d="M249.9,500c-1.5,0-2.9-0.4-4.2-1.1L4.1,357.1c-2.5-1.5-4.1-4.2-4.1-7.2v-33.3c0-4.6,3.7-8.3,8.3-8.3
	c1.6,0,3.1,0.4,4.5,1.1l237.1,139.1L487,309.4c5.3-3.1,12.8,1.1,12.8,7.2v33.3c0,3-1.6,5.7-4.1,7.2L254.1,498.9
	C252.9,499.6,251.4,500,249.9,500L249.9,500z M16.7,345.1L249.9,482l233.3-136.9V331l-229,134.4c-2.6,1.5-5.8,1.5-8.4,0L16.7,331
	V345.1z"/>
<path class="st1" d="M249.9,500c-4.6,0-8.3-3.7-8.3-8.3v-33.5c0-4.6,3.7-8.3,8.3-8.3s8.3,3.7,8.3,8.3v33.5
	C258.3,496.3,254.5,500,249.9,500z"/>
<path class="st1" d="M249.9,416.5c-1.5,0-2.9-0.4-4.2-1.1L4.1,273.6c-2.6-1.5-4.1-4.2-4.1-7.2v-33.3c0-4.6,3.7-8.3,8.3-8.3l0,0
	c1.6,0,3.1,0.4,4.5,1.1L249.9,365L487,225.9c5.3-3.1,12.8,1.1,12.8,7.2v33.3c0,3-1.6,5.7-4.1,7.2L254.1,415.4
	C252.9,416.1,251.4,416.5,249.9,416.5L249.9,416.5z M16.7,261.6L250,398.5l233.3-136.9v-14.2l-229,134.4c-2.6,1.5-5.8,1.5-8.4,0
	l-229-134.4L16.7,261.6z"/>
<path class="st1" d="M249.9,416.5c-4.6,0-8.3-3.7-8.3-8.3v-33.5c0-4.6,3.7-8.3,8.3-8.3s8.3,3.7,8.3,8.3v33.5
	C258.3,412.8,254.5,416.5,249.9,416.5z"/>
<path class="st1" d="M249.9,383.1c-1.5,0-2.9-0.4-4.2-1.1L4.1,240.1c-4-2.3-5.3-7.4-3-11.4c0.7-1.2,1.7-2.3,3-3L46.5,201
	c2.6-1.5,5.8-1.5,8.4,0l195,114.5l195-114.4c2.6-1.5,5.8-1.5,8.4,0l42.4,24.8c4,2.3,5.3,7.4,3,11.4c-0.7,1.2-1.7,2.3-3,3
	L254.1,381.9C252.9,382.7,251.4,383,249.9,383.1L249.9,383.1z M24.8,233l225.1,132.1L475,233l-25.9-15.2l-195,114.4
	c-2.6,1.5-5.8,1.5-8.4,0l-195-114.4L24.8,233z"/>
<path class="st1" d="M249.9,466.5c-1.5,0-2.9-0.4-4.2-1.1L4.1,323.6c-4-2.3-5.3-7.4-3-11.4c0.7-1.2,1.7-2.3,3-3l42.6-25
	c2.6-1.5,5.8-1.5,8.4,0l194.7,114.3l194.7-114.3c2.6-1.5,5.8-1.5,8.4,0l42.6,25c4,2.3,5.3,7.4,3,11.4c-0.7,1.2-1.7,2.3-3,3
	L254.1,465.4C252.9,466.1,251.4,466.5,249.9,466.5L249.9,466.5z M24.8,316.4l225.1,132.1L475,316.4l-26.2-15.3L254.1,415.4
	c-2.6,1.5-5.8,1.5-8.4,0L51,301.1L24.8,316.4z"/>
</svg>
