<?xml version="1.0" encoding="utf-8"?>
<!-- Generator: Adobe Illustrator 21.0.0, SVG Export Plug-In . SVG Version: 6.00 Build 0)  -->
<svg version="1.1" id="Индивидуальный_подход"
	 xmlns="http://www.w3.org/2000/svg" xmlns:xlink="http://www.w3.org/1999/xlink" x="0px" y="0px" viewBox="0 0 500 499.7"
	 style="enable-background:new 0 0 500 499.7;" xml:space="preserve">
<style type="text/css">
	.st0{clip-path:url(#SVGID_2_);}
	.st1{fill:#F5F5F5;}
</style>
<title>exclusive</title>
<g>
	<g>
		<defs>
			<rect id="SVGID_1_" width="500" height="500"/>
		</defs>
		<clipPath id="SVGID_2_">
			<use xlink:href="#SVGID_1_"  style="overflow:visible;"/>
		</clipPath>
		<g class="st0">
			<path class="st1" d="M492.5,74.8L177.7,0.3c-5.2-1.2-10.5,2-11.7,7.3c-0.2,0.7-0.3,1.5-0.3,2.3v49.7c0,4.5,3.1,8.5,7.5,9.5
				l17.3,4.1v54.4L5.2,224.7c-3.2,1.7-5.2,5-5.2,8.6V283c0,5.4,4.4,9.8,9.8,9.8c1.6,0,3.1-0.4,4.5-1.1l10.6-5.5V490
				c0,5.4,4.4,9.8,9.8,9.8h430.8c5.4,0,9.8-4.4,9.8-9.8V140.4l12.8,3c5.2,1.2,10.5-2,11.7-7.3c0.2-0.7,0.3-1.5,0.3-2.2V84.3
				C500,79.8,496.9,75.8,492.5,74.8z M190.5,480.2h-63.3V332.5h63.3V480.2z M190.5,313h-73c-5.4,0-9.8,4.4-9.8,9.8v157.4H44.4V275.8
				l146.1-76.7V313L190.5,313z M190.5,177.1l-171,89.8v-27.6l171-89.7V177.1z M265,457h135.7v23.2H265V457z M400.7,310.9H265v-48
				h135.7V310.9z M400.7,330.4v22.7H265v-22.7H400.7z M400.7,372.6v22.7H265v-22.7H400.7z M400.7,414.8v22.7H265v-22.7H400.7z
				 M455.6,480.2h-35.4V253.1c0-5.4-4.4-9.8-9.8-9.8H255.2c-5.4,0-9.8,4.4-9.8,9.8l0,0v227.1H210V77.7l245.6,58.1V480.2z
				 M480.5,121.6L185.2,51.7V22.1L480.5,92V121.6z"/>
		</g>
	</g>
</g>
<path class="st1" d="M415.9,214.1H245c-6.7,0-12.1-4.4-12.1-9.8s5.4-9.8,12.1-9.8h170.9c6.7,0,12.1,4.4,12.1,9.8
	S422.6,214.1,415.9,214.1z"/>
</svg>
