<?xml version="1.0" encoding="utf-8"?>
<!-- Generator: Adobe Illustrator 21.0.0, SVG Export Plug-In . SVG Version: 6.00 Build 0)  -->
<svg version="1.1" id="Оплата" xmlns="http://www.w3.org/2000/svg" xmlns:xlink="http://www.w3.org/1999/xlink" x="0px"
	 y="0px" viewBox="0 0 375 500" style="enable-background:new 0 0 375 500;" xml:space="preserve">
<style type="text/css">
	.st0{fill:#18449C;}
</style>
<title>payment</title>
<g id="_1">
	<path class="st0" d="M258.4,20l96.6,93.5V480H20V20H258.4 M266.5,0H0v500h375V105L266.5,0z"/>
</g>
<g id="_2">
	<path class="st0" d="M270,33l73,71h-73V33 M266.5,1.7L250,3v121h123.5l-0.4-18.6L266.5,1.7z"/>
</g>
<g id="_3">
	<path class="st0" d="M302.4,167H197.5c-5.5,0-10,4.5-10,10s4.5,10,10,10h104.9c5.5,0,10-4.5,10-10S307.9,167,302.4,167z"/>
</g>
<path class="st0" d="M302.4,229H72.6c-5.5,0-10,4.5-10,10s4.5,10,10,10h229.8c5.5,0,10-4.5,10-10S307.9,229,302.4,229z"/>
<path class="st0" d="M302.4,290H72.6c-5.5,0-10,4.5-10,10s4.5,10,10,10h229.8c5.5,0,10-4.5,10-10S307.9,290,302.4,290z"/>
<path class="st0" d="M302.4,350H72.6c-5.5,0-10,4.5-10,10s4.5,10,10,10h229.8c5.5,0,10-4.5,10-10S307.9,350,302.4,350z"/>
<g id="_7">
	<path class="st0" d="M199.5,410.5H72.6c-5.5,0-10,4.5-10,10s4.5,10,10,10h126.9c5.5,0,10-4.5,10-10S205,410.5,199.5,410.5z"/>
</g>
<path class="st0" d="M65.3,166.6h18.6v16c-0.1,1.4,1,2.6,2.5,2.7c0.1,0,0.1,0,0.2,0h13.9c0.7,0,1.4-0.3,1.9-0.8
	c0.5-0.5,0.8-1.2,0.8-1.9v-16h42c1.4,0.1,2.6-1,2.7-2.5c0-0.1,0-0.1,0-0.2v-10.6c0.1-1.4-1-2.6-2.5-2.7c-0.1,0-0.1,0-0.2,0h-42v-9.8
	h28.3c11.1,0,20.1-3.4,27.1-10.1c7-6.8,10.5-15.5,10.5-26.2c0-10.7-3.5-19.4-10.5-26.2s-16.1-10.2-27.2-10.1H86.6
	c-1.4-0.1-2.6,1-2.7,2.5c0,0.1,0,0.1,0,0.2v52.3H65.3c-0.7,0-1.4,0.3-1.9,0.8c-0.5,0.5-0.8,1.2-0.8,1.9v12.4c-0.1,1.4,1,2.6,2.5,2.7
	c0.1,0,0.1,0,0.2,0h18.6v9.8H65.3c-0.7,0-1.4,0.3-1.9,0.8c-0.5,0.5-0.8,1.2-0.8,1.9V164c-0.1,1.4,1,2.6,2.5,2.7
	C65.2,166.7,65.2,166.7,65.3,166.6L65.3,166.6z M103.1,85.9h26.6c5.9,0,10.6,1.7,14.2,5.2c3.6,3.4,5.4,7.9,5.4,13.5
	c0,5.5-1.8,10-5.4,13.5c-3.6,3.4-8.3,5.2-14.2,5.2h-26.6L103.1,85.9z"/>
</svg>
