<?xml version="1.0" encoding="utf-8"?>
<!-- Generator: Adobe Illustrator 21.0.0, SVG Export Plug-In . SVG Version: 6.00 Build 0)  -->
<svg version="1.1" id="Layer_2" xmlns="http://www.w3.org/2000/svg" xmlns:xlink="http://www.w3.org/1999/xlink" x="0px" y="0px"
	 viewBox="0 0 501.3 424.9" style="enable-background:new 0 0 501.3 424.9;" xml:space="preserve">
<style type="text/css">
	.st0{fill:#18449C;}
</style>
<title>high_standart</title>
<path class="st0" d="M1.3,125.3C31.5,85,61.9,44.7,92.3,4.4c2.1-2.5,5.2-3.9,8.4-4.1C200.6,0,300.6,0,400.5,0
	c7.3,0,9.8,5.5,13.1,9.9c24.4,32.2,48.6,64.7,72.8,97c4.3,5.7,8.5,11.5,12.8,17.1c3.6,4.6,1.8,8.8-1.2,12.3
	c-10.3,12.4-20.9,24.4-31.2,36.7c-10.1,12-19.9,24.2-30,36.2c-8.5,10.2-17.3,20.1-25.9,30.2c-10.5,12.4-20.7,24.9-31.1,37.3
	c-8.2,9.8-16.5,19.4-24.7,29.1c-10.5,12.5-21,25.2-31.5,37.7c-8.4,10-17,19.9-25.5,29.9s-16.9,20.4-25.4,30.5
	c-5,5.9-10,11.8-15.2,17.4c-4.7,5-10.2,4.5-14.6-0.9c-10.9-13.1-22-26.2-32.9-39.3c-12.2-14.6-24.2-29.3-36.4-43.8
	c-10.3-12.3-20.9-24.4-31.3-36.7C130,286.3,118,271.6,105.8,257c-8.7-10.3-17.6-20.3-26.3-30.6c-10.4-12.4-20.7-25-31.1-37.4
	s-20.8-24.4-31.3-36.6c-5.3-6.2-10.6-12.4-15.9-18.6C-0.4,131.3-0.4,128.5,1.3,125.3z M250.9,389.5c5.8-18.4,11.3-35.4,16.6-52.5
	c6.3-19.9,12.4-39.9,18.7-59.8c11.4-36,22.9-72.1,34.4-108.1c3.3-10.5,6.5-21,9.8-31.8H171.2L250.9,389.5z M229.3,378.3
	c0.1-1,0.1-2,0-2.9c-7.6-24-15.2-48-22.8-72c-8.5-26.8-16.9-53.7-25.4-80.5c-8.5-27-17.2-53.9-25.5-81c-1.3-4.1-3.1-4.9-6.9-4.9
	C109.8,137,70.9,137,32,137h-5.9L229.3,378.3z M271.9,377.3l0.8,0.5l202.6-240.7H347.8L271.9,377.3z M176.9,120.8h147.9l-73.9-98.6
	L176.9,120.8z M389,16.3H267.1l73.2,97.5L389,16.3z M112.8,16.1l48.8,97.5l73.1-97.5L112.8,16.1z M25.6,120.9h121L98.2,24.1
	L25.6,120.9z M355.4,120.8H476l-72.4-96.5L355.4,120.8z"/>
</svg>
