<?xml version="1.0" encoding="utf-8"?>
<!-- Generator: Adobe Illustrator 21.0.0, SVG Export Plug-In . SVG Version: 6.00 Build 0)  -->
<svg version="1.1" id="Доставка" xmlns="http://www.w3.org/2000/svg" xmlns:xlink="http://www.w3.org/1999/xlink" x="0px"
	 y="0px" viewBox="0 0 500 393.3" style="enable-background:new 0 0 500 393.3;" xml:space="preserve">
<style type="text/css">
	.st0{fill:#18449C;}
</style>
<title>truck2</title>
<path class="st0" d="M450.7,69.3L450.7,69.3l-143.2,0v160.4h-25.1c0-28.2,0-229.7,0-229.7h-3.5h-9.7H0v229.7v16.2V334h57.3
	c0,32.8,26.6,59.3,59.3,59.3c32.5,0,58.9-26.2,59.3-58.6c0-0.3,0-0.5,0-0.8v0h131.5v0H332c0,32.8,26.6,59.3,59.3,59.3
	c32.8,0,59.3-26.6,59.3-59.3H500V119L450.7,69.3z M150.3,17h99.4l-99.4,86.5V17z M265.4,26.1v89H162.9L265.4,26.1z M150.3,130.8
	h100.8l-100.8,87.7V130.8z M265.4,140.9v87.9H164.2L265.4,140.9z M17,17h101.6L17,104.6V17z M132.1,27.1V115h-101L132.1,27.1z
	 M17,130.8h102.4L17,220V130.8z M132.1,142.1v86.7H32.5L132.1,142.1z M158.8,337.4c-1.8,21.8-20,38.9-42.2,38.9
	c-23.4,0-42.3-19-42.3-42.3c0,0,0,0,0,0c0-23.4,19-42.3,42.3-42.3v0c23.4,0,42.3,19,42.3,42.3C159,335.2,158.9,336.3,158.8,337.4z
	 M307.2,317H173.5c-7.3-24.5-30-42.3-56.8-42.3v0c-26.9,0-49.5,17.9-56.8,42.3H17v-70.3h290.2V317z M443.6,86.3L483,126v68.7h-77.7
	L376,165.4V86.3H443.6z M359,86.3v77.6h-34.5V86.3H359z M391.3,376.3c-23.4,0-42.3-19-42.3-42.3c0-23.4,19-42.3,42.3-42.3
	c23.4,0,42.3,19,42.3,42.3C433.7,357.4,414.7,376.3,391.3,376.3z M483,281.2V317h-34.8c-7.3-24.5-30-42.4-56.9-42.4h0
	c-26.9,0-49.6,17.9-56.9,42.4h-10V180.9h42.9l30.8,30.8H483v40.8h-23v28.7H483z"/>
</svg>
